STARTFONT 2.1
FONT -Adobe-ITC Avant Garde Gothic-Book-R-Normal--24-240-75-75-P-138-ISO8859-1
SIZE 24 75 75
FONTBOUNDINGBOX 32 28 -4 -4

STARTPROPERTIES 30
FOUNDRY "Adobe"
FAMILY_NAME "ITC Avant Garde Gothic"
WEIGHT_NAME "Book"
SLANT "R"
SETWIDTH_NAME "Normal"
ADD_STYLE_NAME ""
PIXEL_SIZE 24
POINT_SIZE 240
RESOLUTION_X 75
RESOLUTION_Y 75
SPACING "P"
AVERAGE_WIDTH 138
CHARSET_REGISTRY "ISO8859"
CHARSET_ENCODING "1"
CAP_HEIGHT 19
X_HEIGHT 14
FACE_NAME "ITC Avant Garde Gothic Book"
COPYRIGHT "Copyright (c) 1984, 1987 Adobe Systems Incorporated. All Rights Reserved. Copyright (c) 1988, 1991 Digital Equipment Corporation. All Rights Reserved."
NOTICE "ITC Avant Garde Gothic is a registered trademark of International Typeface Corporation."
_DEC_DEVICE_FONTNAMES "PS=AvantGarde-Book"
_DEC_PRODUCTINFO "DECwindows Fonts V2.2, 07-Nov-1991"
RELATIVE_SETWIDTH 50
RELATIVE_WEIGHT 40
CHARSET_COLLECTIONS "ASCII ISO8859-1 ADOBE-STANDARD"
FULL_NAME "ITC Avant Garde Gothic Book"
WEIGHT 10
QUAD_WIDTH 16
DEFAULT_CHAR 32
FONT_DESCENT 4
FONT_ASCENT 22
ENDPROPERTIES

CHARS 191

STARTCHAR space
ENCODING 32
SWIDTH 277 0
DWIDTH 6 0
BBX 1 1 0 0
BITMAP
00
ENDCHAR

STARTCHAR exclam
ENCODING 33
SWIDTH 295 0
DWIDTH 7 0
BBX 2 19 2 0
BITMAP
C0
C0
C0
C0
C0
C0
C0
C0
C0
C0
C0
C0
C0
C0
00
00
C0
C0
C0
ENDCHAR

STARTCHAR quotedbl
ENCODING 34
SWIDTH 309 0
DWIDTH 10 0
BBX 5 5 2 14
BITMAP
D8
D8
D8
D8
D8
ENDCHAR

STARTCHAR numbersign
ENCODING 35
SWIDTH 720 0
DWIDTH 18 0
BBX 16 18 1 1
BITMAP
0066
0066
00CC
00CC
0198
1FFF
1FFF
0330
0660
0660
FFFC
FFFC
1980
1980
3300
3300
6600
6600
ENDCHAR

STARTCHAR dollar
ENCODING 36
SWIDTH 554 0
DWIDTH 13 0
BBX 11 21 1 -2
BITMAP
0600
0600
1F00
7FC0
60C0
C060
C060
C060
6000
7E00
1F80
01C0
0060
C060
C060
C0C0
60C0
7F80
1F00
0600
0600
ENDCHAR

STARTCHAR percent
ENCODING 37
SWIDTH 775 0
DWIDTH 19 0
BBX 17 20 1 -1
BITMAP
180C00
7E0C00
661800
C31800
C33000
C33000
666000
7E6000
18C000
00C000
018C00
01BF00
033300
036180
066180
066180
0C3300
0C3F00
180C00
180000
ENDCHAR

STARTCHAR ampersand
ENCODING 38
SWIDTH 757 0
DWIDTH 20 0
BBX 17 19 1 0
BITMAP
070000
1FC000
38E000
306000
306000
18C000
1DC000
0F8000
3F0600
738600
61C600
C0EC00
C07C00
C03800
C03C00
C07E00
60E700
7FC380
1F0180
ENDCHAR

STARTCHAR quoteright
ENCODING 39
SWIDTH 351 0
DWIDTH 8 0
BBX 5 4 1 15
BITMAP
18
30
60
C0
ENDCHAR

STARTCHAR parenleft
ENCODING 40
SWIDTH 369 0
DWIDTH 9 0
BBX 7 22 1 -3
BITMAP
06
0C
18
30
30
60
60
60
C0
C0
C0
C0
C0
C0
60
60
60
30
30
18
0C
06
ENDCHAR

STARTCHAR parenright
ENCODING 41
SWIDTH 369 0
DWIDTH 8 0
BBX 7 22 0 -3
BITMAP
C0
60
30
18
18
0C
0C
0C
06
06
06
06
06
06
0C
0C
0C
18
18
30
60
C0
ENDCHAR

STARTCHAR asterisk
ENCODING 42
SWIDTH 425 0
DWIDTH 10 0
BBX 7 5 1 14
BITMAP
6C
38
FE
38
6C
ENDCHAR

STARTCHAR plus
ENCODING 43
SWIDTH 606 0
DWIDTH 16 0
BBX 14 14 1 1
BITMAP
0300
0300
0300
0300
0300
0300
FFFC
FFFC
0300
0300
0300
0300
0300
0300
ENDCHAR

STARTCHAR comma
ENCODING 44
SWIDTH 277 0
DWIDTH 8 0
BBX 5 4 0 -2
BITMAP
18
30
60
C0
ENDCHAR

STARTCHAR minus
ENCODING 45
SWIDTH 606 0
DWIDTH 14 0
BBX 12 2 1 6
BITMAP
FFF0
FFF0
ENDCHAR

STARTCHAR period
ENCODING 46
SWIDTH 277 0
DWIDTH 7 0
BBX 2 3 2 0
BITMAP
C0
C0
C0
ENDCHAR

STARTCHAR slash
ENCODING 47
SWIDTH 437 0
DWIDTH 11 0
BBX 8 21 1 -2
BITMAP
03
03
03
06
06
06
0C
0C
0C
18
18
18
30
30
30
60
60
60
C0
C0
C0
ENDCHAR

STARTCHAR zero
ENCODING 48
SWIDTH 554 0
DWIDTH 13 0
BBX 11 19 1 0
BITMAP
1F00
7FC0
60C0
C060
C060
C060
C060
C060
C060
C060
C060
C060
C060
C060
C060
C060
60C0
7FC0
1F00
ENDCHAR

STARTCHAR one
ENCODING 49
SWIDTH 554 0
DWIDTH 13 0
BBX 5 19 3 0
BITMAP
F8
F8
18
18
18
18
18
18
18
18
18
18
18
18
18
18
18
18
18
ENDCHAR

STARTCHAR two
ENCODING 50
SWIDTH 554 0
DWIDTH 13 0
BBX 11 19 1 0
BITMAP
1F00
7FC0
60C0
C060
C060
C060
C060
0060
00C0
01C0
0380
0700
0E00
1C00
3800
7000
E000
FFE0
FFE0
ENDCHAR

STARTCHAR three
ENCODING 51
SWIDTH 554 0
DWIDTH 13 0
BBX 11 19 1 0
BITMAP
1E00
7F80
6180
C0C0
C0C0
00C0
0180
0F80
0F00
00C0
00C0
0060
0060
C060
C060
C0C0
61C0
7F80
1E00
ENDCHAR

STARTCHAR four
ENCODING 52
SWIDTH 554 0
DWIDTH 13 0
BBX 11 19 1 0
BITMAP
01C0
03C0
03C0
06C0
06C0
0CC0
0CC0
18C0
18C0
30C0
30C0
60C0
60C0
C0C0
FFE0
FFE0
00C0
00C0
00C0
ENDCHAR

STARTCHAR five
ENCODING 53
SWIDTH 554 0
DWIDTH 13 0
BBX 11 19 1 0
BITMAP
FFC0
FFC0
C000
C000
C000
C000
CF00
FFC0
F0C0
0060
0060
0060
0060
C060
C060
C0C0
61C0
7F80
1E00
ENDCHAR

STARTCHAR six
ENCODING 54
SWIDTH 554 0
DWIDTH 13 0
BBX 11 19 1 0
BITMAP
0600
0600
1800
1800
3000
3000
6E00
7F80
61C0
C0C0
C060
C060
C060
C060
C060
60C0
71C0
3F80
0E00
ENDCHAR

STARTCHAR seven
ENCODING 55
SWIDTH 554 0
DWIDTH 13 0
BBX 11 19 1 0
BITMAP
FFE0
FFE0
0060
0060
00C0
00C0
0180
0180
0300
0300
0600
0600
0C00
0C00
1800
1800
3000
3000
3000
ENDCHAR

STARTCHAR eight
ENCODING 56
SWIDTH 554 0
DWIDTH 13 0
BBX 11 19 1 0
BITMAP
0E00
3F80
3180
60C0
60C0
60C0
60C0
3180
1F00
7FC0
60C0
C060
C060
C060
C060
C060
60C0
7FC0
1F00
ENDCHAR

STARTCHAR nine
ENCODING 57
SWIDTH 554 0
DWIDTH 13 0
BBX 11 19 1 0
BITMAP
0E00
3F80
71C0
60C0
C060
C060
C060
C060
C060
6060
70C0
3FC0
0EC0
0180
0180
0300
0300
0C00
0C00
ENDCHAR

STARTCHAR colon
ENCODING 58
SWIDTH 277 0
DWIDTH 7 0
BBX 2 13 2 0
BITMAP
C0
C0
C0
00
00
00
00
00
00
00
C0
C0
C0
ENDCHAR

STARTCHAR semicolon
ENCODING 59
SWIDTH 277 0
DWIDTH 7 0
BBX 5 15 -1 -2
BITMAP
18
18
18
00
00
00
00
00
00
00
00
18
30
60
C0
ENDCHAR

STARTCHAR less
ENCODING 60
SWIDTH 606 0
DWIDTH 16 0
BBX 14 15 1 1
BITMAP
000C
003C
00F0
03C0
0F00
3C00
F000
C000
F000
3C00
0F00
03C0
00F0
003C
000C
ENDCHAR

STARTCHAR equal
ENCODING 61
SWIDTH 606 0
DWIDTH 15 0
BBX 13 6 1 5
BITMAP
FFF8
FFF8
0000
0000
FFF8
FFF8
ENDCHAR

STARTCHAR greater
ENCODING 62
SWIDTH 606 0
DWIDTH 16 0
BBX 14 15 1 1
BITMAP
C000
F000
3C00
0F00
03C0
00F0
003C
000C
003C
00F0
03C0
0F00
3C00
F000
C000
ENDCHAR

STARTCHAR question
ENCODING 63
SWIDTH 591 0
DWIDTH 15 0
BBX 11 19 1 0
BITMAP
1F00
7FC0
60C0
C060
C060
0060
0060
0060
00C0
00C0
0300
0300
0600
0600
0000
0000
0600
0600
0600
ENDCHAR

STARTCHAR at
ENCODING 64
SWIDTH 867 0
DWIDTH 20 0
BBX 18 20 1 -1
BITMAP
03FC00
0FFF00
3C0300
300180
60E180
63ECC0
C31CC0
C60CC0
C618C0
CC18C0
CC1980
CC3180
CC3300
CC7F00
67CC00
638000
300300
3C0F00
0FFC00
03F000
ENDCHAR

STARTCHAR A
ENCODING 65
SWIDTH 740 0
DWIDTH 20 0
BBX 19 19 0 0
BITMAP
004000
00E000
00E000
01B000
01B000
031800
031800
060C00
060C00
0C0600
0C0600
1FFF00
1FFF00
300180
300180
6000C0
6000C0
C00060
C00060
ENDCHAR

STARTCHAR B
ENCODING 66
SWIDTH 574 0
DWIDTH 15 0
BBX 12 19 1 0
BITMAP
FF00
FFC0
C0E0
C060
C060
C060
C060
C0C0
FF80
FFE0
C070
C030
C030
C030
C030
C030
C060
FFE0
FF80
ENDCHAR

STARTCHAR C
ENCODING 67
SWIDTH 813 0
DWIDTH 21 0
BBX 18 19 1 0
BITMAP
03F800
0FFE00
3C0780
300180
6000C0
6000C0
C00000
C00000
C00000
C00000
C00000
C00000
C00000
6000C0
6000C0
300180
3C0780
0FFE00
03F800
ENDCHAR

STARTCHAR D
ENCODING 68
SWIDTH 744 0
DWIDTH 19 0
BBX 16 19 1 0
BITMAP
FFC0
FFF0
C03C
C00C
C006
C006
C003
C003
C003
C003
C003
C003
C003
C006
C006
C00C
C03C
FFF0
FFC0
ENDCHAR

STARTCHAR E
ENCODING 69
SWIDTH 536 0
DWIDTH 12 0
BBX 10 19 1 0
BITMAP
FFC0
FFC0
C000
C000
C000
C000
C000
C000
FFC0
FFC0
C000
C000
C000
C000
C000
C000
C000
FFC0
FFC0
ENDCHAR

STARTCHAR F
ENCODING 70
SWIDTH 485 0
DWIDTH 12 0
BBX 10 19 1 0
BITMAP
FFC0
FFC0
C000
C000
C000
C000
C000
C000
FFC0
FFC0
C000
C000
C000
C000
C000
C000
C000
C000
C000
ENDCHAR

STARTCHAR G
ENCODING 71
SWIDTH 872 0
DWIDTH 21 0
BBX 19 19 1 0
BITMAP
03F800
0FFE00
3C0780
300180
6000C0
6000C0
C00000
C00000
C00000
C00000
C1FFE0
C1FFE0
C00060
6000C0
6000C0
300180
3C0780
0FFE00
03F800
ENDCHAR

STARTCHAR H
ENCODING 72
SWIDTH 683 0
DWIDTH 17 0
BBX 14 19 1 0
BITMAP
C00C
C00C
C00C
C00C
C00C
C00C
C00C
C00C
FFFC
FFFC
C00C
C00C
C00C
C00C
C00C
C00C
C00C
C00C
C00C
ENDCHAR

STARTCHAR I
ENCODING 73
SWIDTH 226 0
DWIDTH 5 0
BBX 2 19 1 0
BITMAP
C0
C0
C0
C0
C0
C0
C0
C0
C0
C0
C0
C0
C0
C0
C0
C0
C0
C0
C0
ENDCHAR

STARTCHAR J
ENCODING 74
SWIDTH 482 0
DWIDTH 12 0
BBX 10 19 0 0
BITMAP
00C0
00C0
00C0
00C0
00C0
00C0
00C0
00C0
00C0
00C0
00C0
00C0
00C0
00C0
C0C0
C0C0
6180
7F80
1E00
ENDCHAR

STARTCHAR K
ENCODING 75
SWIDTH 591 0
DWIDTH 16 0
BBX 14 19 1 0
BITMAP
C00C
C018
C030
C060
C0C0
C180
C300
C600
CC00
D800
FC00
EE00
C700
C380
C1C0
C0E0
C070
C038
C01C
ENDCHAR

STARTCHAR L
ENCODING 76
SWIDTH 462 0
DWIDTH 12 0
BBX 10 19 1 0
BITMAP
C000
C000
C000
C000
C000
C000
C000
C000
C000
C000
C000
C000
C000
C000
C000
C000
C000
FFC0
FFC0
ENDCHAR

STARTCHAR M
ENCODING 77
SWIDTH 919 0
DWIDTH 22 0
BBX 19 19 1 0
BITMAP
F001E0
F001E0
D80360
D80360
D80360
CC0660
CC0660
CC0660
C60C60
C60C60
C60C60
C31860
C31860
C31860
C1B060
C1B060
C1B060
C0E060
C0E060
ENDCHAR

STARTCHAR N
ENCODING 78
SWIDTH 740 0
DWIDTH 17 0
BBX 14 19 1 0
BITMAP
F00C
F00C
D80C
D80C
CC0C
CC0C
C60C
C60C
C30C
C30C
C18C
C18C
C0CC
C0CC
C06C
C06C
C03C
C03C
C01C
ENDCHAR

STARTCHAR O
ENCODING 79
SWIDTH 869 0
DWIDTH 22 0
BBX 19 19 1 0
BITMAP
03F800
0FFE00
3C0780
300180
6000C0
6000C0
C00060
C00060
C00060
C00060
C00060
C00060
C00060
6000C0
6000C0
300180
3C0780
0FFE00
03F800
ENDCHAR

STARTCHAR P
ENCODING 80
SWIDTH 592 0
DWIDTH 14 0
BBX 12 19 1 0
BITMAP
FF80
FFE0
C060
C030
C030
C030
C030
C030
C060
C1E0
FF80
FE00
C000
C000
C000
C000
C000
C000
C000
ENDCHAR

STARTCHAR Q
ENCODING 81
SWIDTH 871 0
DWIDTH 22 0
BBX 20 19 1 0
BITMAP
03F800
0FFE00
3C0780
300180
6000C0
6000C0
C00060
C00060
C00060
C00060
C00060
DF0060
FFE060
60F8C0
601CC0
300780
3C0780
0FFEF0
03F870
ENDCHAR

STARTCHAR R
ENCODING 82
SWIDTH 607 0
DWIDTH 16 0
BBX 14 19 1 0
BITMAP
FF80
FFE0
C060
C030
C030
C030
C030
C030
C060
C1E0
CF80
CE00
C700
C380
C1C0
C0E0
C070
C038
C01C
ENDCHAR

STARTCHAR S
ENCODING 83
SWIDTH 498 0
DWIDTH 11 0
BBX 10 19 0 0
BITMAP
1E00
7F80
6180
C0C0
C0C0
C000
6000
7000
3C00
0F00
0380
0180
00C0
00C0
C0C0
C0C0
6180
7F80
1E00
ENDCHAR

STARTCHAR T
ENCODING 84
SWIDTH 426 0
DWIDTH 11 0
BBX 10 19 0 0
BITMAP
FFC0
FFC0
0C00
0C00
0C00
0C00
0C00
0C00
0C00
0C00
0C00
0C00
0C00
0C00
0C00
0C00
0C00
0C00
0C00
ENDCHAR

STARTCHAR U
ENCODING 85
SWIDTH 655 0
DWIDTH 17 0
BBX 14 19 1 0
BITMAP
C00C
C00C
C00C
C00C
C00C
C00C
C00C
C00C
C00C
C00C
C00C
C00C
C00C
C00C
6018
6018
3030
3FF0
0FC0
ENDCHAR

STARTCHAR V
ENCODING 86
SWIDTH 702 0
DWIDTH 16 0
BBX 15 19 0 0
BITMAP
C006
C006
C006
600C
600C
600C
3018
3018
3018
1830
1830
1830
0C60
0C60
0C60
06C0
06C0
0380
0380
ENDCHAR

STARTCHAR W
ENCODING 87
SWIDTH 960 0
DWIDTH 22 0
BBX 21 19 0 0
BITMAP
C07018
C07018
C07018
60D830
60D830
60D830
60D830
318C60
318C60
318C60
318C60
1B06C0
1B06C0
1B06C0
1B06C0
0E0380
0E0380
0E0380
0E0380
ENDCHAR

STARTCHAR X
ENCODING 88
SWIDTH 609 0
DWIDTH 14 0
BBX 13 19 0 0
BITMAP
6030
6030
3060
3060
18C0
18C0
0D80
0F80
0700
0D80
0D80
18C0
18C0
3060
3060
6030
6030
C018
C018
ENDCHAR

STARTCHAR Y
ENCODING 89
SWIDTH 592 0
DWIDTH 15 0
BBX 14 19 0 0
BITMAP
C00C
C00C
6018
6018
3030
3030
1860
1860
0CC0
0CC0
0780
0780
0300
0300
0300
0300
0300
0300
0300
ENDCHAR

STARTCHAR Z
ENCODING 90
SWIDTH 480 0
DWIDTH 12 0
BBX 11 19 0 0
BITMAP
FFE0
FFE0
0060
00C0
00C0
0180
0300
0300
0600
0C00
0C00
1800
3000
3000
6000
C000
C000
FFE0
FFE0
ENDCHAR

STARTCHAR bracketleft
ENCODING 91
SWIDTH 351 0
DWIDTH 8 0
BBX 5 22 2 -3
BITMAP
18
18
60
60
C0
C0
C0
C0
C0
C0
C0
C0
C0
C0
C0
C0
C0
C0
60
60
18
18
ENDCHAR

STARTCHAR backslash
ENCODING 92
SWIDTH 605 0
DWIDTH 11 0
BBX 8 21 1 -2
BITMAP
C0
C0
C0
60
60
60
30
30
30
18
18
18
0C
0C
0C
06
06
06
03
03
03
ENDCHAR

STARTCHAR bracketright
ENCODING 93
SWIDTH 351 0
DWIDTH 8 0
BBX 5 22 1 -3
BITMAP
C0
C0
30
30
18
18
18
18
18
18
18
18
18
18
18
18
18
18
30
30
C0
C0
ENDCHAR

STARTCHAR asciicircum
ENCODING 94
SWIDTH 672 0
DWIDTH 17 0
BBX 15 14 1 5
BITMAP
0380
0380
06C0
06C0
0C60
0C60
1830
1830
3018
3018
600C
600C
C006
C006
ENDCHAR

STARTCHAR underscore
ENCODING 95
SWIDTH 500 0
DWIDTH 12 0
BBX 12 2 0 -4
BITMAP
FFF0
FFF0
ENDCHAR

STARTCHAR quoteleft
ENCODING 96
SWIDTH 351 0
DWIDTH 8 0
BBX 5 4 1 15
BITMAP
C0
60
30
18
ENDCHAR

STARTCHAR a
ENCODING 97
SWIDTH 683 0
DWIDTH 16 0
BBX 13 14 1 0
BITMAP
0F98
3FD8
7078
6038
C018
C018
C018
C018
C018
C018
6038
7078
3FD8
0F98
ENDCHAR

STARTCHAR b
ENCODING 98
SWIDTH 682 0
DWIDTH 16 0
BBX 13 19 1 0
BITMAP
C000
C000
C000
C000
C000
CF80
DFE0
F070
E030
C018
C018
C018
C018
C018
C018
E030
F070
DFE0
CF80
ENDCHAR

STARTCHAR c
ENCODING 99
SWIDTH 647 0
DWIDTH 15 0
BBX 12 14 1 0
BITMAP
0F80
3FE0
7070
6030
C000
C000
C000
C000
C000
C000
6030
7070
3FE0
0F80
ENDCHAR

STARTCHAR d
ENCODING 100
SWIDTH 685 0
DWIDTH 16 0
BBX 13 19 1 0
BITMAP
0018
0018
0018
0018
0018
0F98
3FD8
7078
6038
C018
C018
C018
C018
C018
C018
6038
7078
3FD8
0F98
ENDCHAR

STARTCHAR e
ENCODING 101
SWIDTH 650 0
DWIDTH 16 0
BBX 13 14 1 0
BITMAP
0F80
3FE0
7070
6030
C018
C018
FFF8
FFF8
C000
C000
6030
7070
3FE0
0F80
ENDCHAR

STARTCHAR f
ENCODING 102
SWIDTH 314 0
DWIDTH 8 0
BBX 7 19 0 0
BITMAP
0E
1E
38
30
30
FE
FE
30
30
30
30
30
30
30
30
30
30
30
30
ENDCHAR

STARTCHAR g
ENCODING 103
SWIDTH 673 0
DWIDTH 16 0
BBX 13 18 1 -4
BITMAP
0F98
3FD8
7078
6038
C018
C018
C018
C018
C018
C018
6038
7078
3FD8
0F98
6018
7030
3FF0
0FC0
ENDCHAR

STARTCHAR h
ENCODING 104
SWIDTH 610 0
DWIDTH 15 0
BBX 12 19 1 0
BITMAP
C000
C000
C000
C000
C000
CF80
DFE0
F070
E030
C030
C030
C030
C030
C030
C030
C030
C030
C030
C030
ENDCHAR

STARTCHAR i
ENCODING 105
SWIDTH 200 0
DWIDTH 5 0
BBX 2 19 1 0
BITMAP
C0
C0
C0
00
00
C0
C0
C0
C0
C0
C0
C0
C0
C0
C0
C0
C0
C0
C0
ENDCHAR

STARTCHAR j
ENCODING 106
SWIDTH 203 0
DWIDTH 5 0
BBX 5 23 -2 -4
BITMAP
18
18
18
00
00
18
18
18
18
18
18
18
18
18
18
18
18
18
18
18
38
F0
E0
ENDCHAR

STARTCHAR k
ENCODING 107
SWIDTH 502 0
DWIDTH 13 0
BBX 11 19 1 0
BITMAP
C000
C000
C000
C000
C000
C060
C0C0
C180
C300
C600
CC00
D800
F800
FC00
CE00
C700
C380
C1C0
C0E0
ENDCHAR

STARTCHAR l
ENCODING 108
SWIDTH 200 0
DWIDTH 5 0
BBX 2 19 1 0
BITMAP
C0
C0
C0
C0
C0
C0
C0
C0
C0
C0
C0
C0
C0
C0
C0
C0
C0
C0
C0
ENDCHAR

STARTCHAR m
ENCODING 109
SWIDTH 938 0
DWIDTH 23 0
BBX 20 14 1 0
BITMAP
CF0780
DFCFE0
F0F870
E07030
C06030
C06030
C06030
C06030
C06030
C06030
C06030
C06030
C06030
C06030
ENDCHAR

STARTCHAR n
ENCODING 110
SWIDTH 610 0
DWIDTH 15 0
BBX 12 14 1 0
BITMAP
CF80
DFE0
F070
E030
C030
C030
C030
C030
C030
C030
C030
C030
C030
C030
ENDCHAR

STARTCHAR o
ENCODING 111
SWIDTH 655 0
DWIDTH 16 0
BBX 13 14 1 0
BITMAP
0F80
3FE0
7070
6030
C018
C018
C018
C018
C018
C018
6030
7070
3FE0
0F80
ENDCHAR

STARTCHAR p
ENCODING 112
SWIDTH 682 0
DWIDTH 16 0
BBX 13 18 1 -4
BITMAP
CF80
DFE0
F070
E030
C018
C018
C018
C018
C018
C018
E030
F070
DFE0
CF80
C000
C000
C000
C000
ENDCHAR

STARTCHAR q
ENCODING 113
SWIDTH 682 0
DWIDTH 16 0
BBX 13 18 1 -4
BITMAP
0F98
3FD8
7078
6038
C018
C018
C018
C018
C018
C018
6038
7078
3FD8
0F98
0018
0018
0018
0018
ENDCHAR

STARTCHAR r
ENCODING 114
SWIDTH 301 0
DWIDTH 8 0
BBX 6 14 1 0
BITMAP
DC
FC
E0
C0
C0
C0
C0
C0
C0
C0
C0
C0
C0
C0
ENDCHAR

STARTCHAR s
ENCODING 115
SWIDTH 388 0
DWIDTH 9 0
BBX 8 14 0 0
BITMAP
3C
7E
C3
C3
C0
E0
78
1E
07
03
C3
C3
7E
3C
ENDCHAR

STARTCHAR t
ENCODING 116
SWIDTH 339 0
DWIDTH 9 0
BBX 8 19 0 0
BITMAP
18
18
18
18
18
FF
FF
18
18
18
18
18
18
18
18
18
18
18
18
ENDCHAR

STARTCHAR u
ENCODING 117
SWIDTH 608 0
DWIDTH 15 0
BBX 12 14 1 0
BITMAP
C030
C030
C030
C030
C030
C030
C030
C030
C030
C030
C070
E0F0
7FB0
1F30
ENDCHAR

STARTCHAR v
ENCODING 118
SWIDTH 554 0
DWIDTH 12 0
BBX 11 14 0 0
BITMAP
C060
C060
C060
60C0
60C0
60C0
3180
3180
3180
1B00
1B00
1B00
0E00
0E00
ENDCHAR

STARTCHAR w
ENCODING 119
SWIDTH 831 0
DWIDTH 22 0
BBX 21 14 0 0
BITMAP
C07018
C07018
C07018
60D830
60D830
60D830
318C60
318C60
318C60
1B06C0
1B06C0
1B06C0
0E0380
0E0380
ENDCHAR

STARTCHAR x
ENCODING 120
SWIDTH 480 0
DWIDTH 10 0
BBX 9 14 0 0
BITMAP
C180
C180
6300
6300
3600
3600
1C00
1C00
3600
3600
6300
6300
C180
C180
ENDCHAR

STARTCHAR y
ENCODING 121
SWIDTH 536 0
DWIDTH 12 0
BBX 11 18 0 -4
BITMAP
C060
C060
C060
60C0
60C0
60C0
3180
3180
3180
1B00
1B00
1F00
0E00
0600
0600
0C00
0C00
0C00
ENDCHAR

STARTCHAR z
ENCODING 122
SWIDTH 425 0
DWIDTH 11 0
BBX 10 14 0 0
BITMAP
FFC0
FFC0
00C0
0180
0300
0600
0C00
1800
3000
6000
C000
C000
FFC0
FFC0
ENDCHAR

STARTCHAR braceleft
ENCODING 123
SWIDTH 351 0
DWIDTH 8 0
BBX 6 22 1 -3
BITMAP
0C
18
30
30
30
30
30
30
30
20
C0
20
30
30
30
30
30
30
30
30
18
0C
ENDCHAR

STARTCHAR bar
ENCODING 124
SWIDTH 672 0
DWIDTH 15 0
BBX 2 19 6 0
BITMAP
C0
C0
C0
C0
C0
C0
C0
C0
C0
C0
C0
C0
C0
C0
C0
C0
C0
C0
C0
ENDCHAR

STARTCHAR braceright
ENCODING 125
SWIDTH 351 0
DWIDTH 8 0
BBX 6 22 1 -3
BITMAP
C0
60
30
30
30
30
30
30
30
10
0C
10
30
30
30
30
30
30
30
30
60
C0
ENDCHAR

STARTCHAR asciitilde
ENCODING 126
SWIDTH 606 0
DWIDTH 15 0
BBX 13 4 1 8
BITMAP
3818
7F18
C7F0
C0E0
ENDCHAR

STARTCHAR space
ENCODING 160
SWIDTH 277 0
DWIDTH 6 0
BBX 1 1 0 0
BITMAP
00
ENDCHAR

STARTCHAR exclamdown
ENCODING 161
SWIDTH 295 0
DWIDTH 7 0
BBX 2 18 2 -4
BITMAP
C0
C0
C0
00
00
C0
C0
C0
C0
C0
C0
C0
C0
C0
C0
C0
C0
C0
ENDCHAR

STARTCHAR cent
ENCODING 162
SWIDTH 554 0
DWIDTH 14 0
BBX 12 16 1 1
BITMAP
0600
0600
1F80
1FE0
6060
6030
C030
C000
C000
C030
6030
6060
1FE0
1F80
0600
0600
ENDCHAR

STARTCHAR sterling
ENCODING 163
SWIDTH 554 0
DWIDTH 15 0
BBX 13 19 1 0
BITMAP
0F80
3FE0
3060
6030
6030
6030
6000
6000
3000
FFC0
FFC0
0C00
0C18
0C18
0C18
0C18
1830
FFF0
FFC0
ENDCHAR

STARTCHAR currency
ENCODING 164
SWIDTH 554 0
DWIDTH 14 0
BBX 12 13 1 3
BITMAP
CF30
FFF0
70E0
6060
C030
C030
C030
C030
C030
6060
70E0
FFF0
CF30
ENDCHAR

STARTCHAR yen
ENCODING 165
SWIDTH 554 0
DWIDTH 16 0
BBX 14 19 1 0
BITMAP
C00C
C00C
6018
6018
3030
3030
1860
7878
7CF8
0CC0
0780
7FF8
7FF8
0300
0300
0300
0300
0300
0300
ENDCHAR

STARTCHAR brokenbar
ENCODING 166
SWIDTH 672 0
DWIDTH 15 0
BBX 2 19 6 0
BITMAP
C0
C0
C0
C0
C0
C0
C0
C0
00
00
00
C0
C0
C0
C0
C0
C0
C0
C0
ENDCHAR

STARTCHAR section
ENCODING 167
SWIDTH 615 0
DWIDTH 15 0
BBX 12 22 1 -3
BITMAP
0F00
3FC0
30C0
6060
6060
3000
1C00
7F00
63C0
C0E0
C060
6030
7830
1E60
07E0
01C0
00C0
6060
6060
30C0
3FC0
0F00
ENDCHAR

STARTCHAR dieresis
ENCODING 168
SWIDTH 369 0
DWIDTH 9 0
BBX 6 2 1 16
BITMAP
CC
CC
ENDCHAR

STARTCHAR copyright
ENCODING 169
SWIDTH 747 0
DWIDTH 19 0
BBX 17 17 1 0
BITMAP
07F000
1C1C00
300600
61E300
463100
C41180
8C1080
880080
880080
880080
8C1080
C63180
43E100
600300
300600
1C1C00
07F000
ENDCHAR

STARTCHAR ordfeminine
ENCODING 170
SWIDTH 369 0
DWIDTH 10 0
BBX 7 10 1 9
BITMAP
3A
46
82
82
82
82
46
3A
00
FE
ENDCHAR

STARTCHAR guillemotleft
ENCODING 171
SWIDTH 425 0
DWIDTH 11 0
BBX 8 10 1 2
BITMAP
33
33
66
66
CC
CC
66
66
33
33
ENDCHAR

STARTCHAR logicalnot
ENCODING 172
SWIDTH 606 0
DWIDTH 14 0
BBX 12 7 1 3
BITMAP
FFF0
FFF0
0030
0030
0030
0030
0030
ENDCHAR

STARTCHAR hyphen
ENCODING 173
SWIDTH 332 0
DWIDTH 8 0
BBX 6 2 1 7
BITMAP
FC
FC
ENDCHAR

STARTCHAR registered
ENCODING 174
SWIDTH 747 0
DWIDTH 19 0
BBX 17 17 1 0
BITMAP
07F000
1C1C00
300600
63E300
423100
C21180
821080
823080
83C080
822080
822080
C22180
421100
600300
300600
1C1C00
07F000
ENDCHAR

STARTCHAR macron
ENCODING 175
SWIDTH 485 0
DWIDTH 12 0
BBX 8 2 2 16
BITMAP
FF
FF
ENDCHAR

STARTCHAR degree
ENCODING 176
SWIDTH 400 0
DWIDTH 9 0
BBX 8 7 0 12
BITMAP
3C
66
C3
C3
C3
66
3C
ENDCHAR

STARTCHAR plusminus
ENCODING 177
SWIDTH 606 0
DWIDTH 16 0
BBX 14 15 1 0
BITMAP
0300
0300
0300
0300
0300
FFFC
FFFC
0300
0300
0300
0300
0300
0000
FFFC
FFFC
ENDCHAR

STARTCHAR twosuperior
ENCODING 178
SWIDTH 332 0
DWIDTH 8 0
BBX 7 11 0 8
BITMAP
7C
FE
C6
06
06
0C
18
30
60
FE
FE
ENDCHAR

STARTCHAR threesuperior
ENCODING 179
SWIDTH 332 0
DWIDTH 8 0
BBX 7 11 0 8
BITMAP
7C
FE
C6
06
3C
3C
06
06
C6
FE
7C
ENDCHAR

STARTCHAR acute
ENCODING 180
SWIDTH 375 0
DWIDTH 9 0
BBX 4 4 2 15
BITMAP
30
30
C0
C0
ENDCHAR

STARTCHAR mu
ENCODING 181
SWIDTH 608 0
DWIDTH 15 0
BBX 12 18 1 -4
BITMAP
C030
C030
C030
C030
C030
C030
C030
C030
C030
C030
C070
E0F0
FFB0
DF30
C000
C000
C000
C000
ENDCHAR

STARTCHAR paragraph
ENCODING 182
SWIDTH 564 0
DWIDTH 14 0
BBX 11 22 1 -3
BITMAP
3FE0
7FE0
FC60
FC60
FC60
FC60
FC60
FC60
7C60
3C60
0C60
0C60
0C60
0C60
0C60
0C60
0C60
0C60
0C60
0C60
0C60
0C60
ENDCHAR

STARTCHAR periodcentered
ENCODING 183
SWIDTH 277 0
DWIDTH 6 0
BBX 2 3 2 7
BITMAP
C0
C0
C0
ENDCHAR

STARTCHAR cedilla
ENCODING 184
SWIDTH 324 0
DWIDTH 8 0
BBX 4 5 2 -4
BITMAP
C0
E0
30
F0
E0
ENDCHAR

STARTCHAR onesuperior
ENCODING 185
SWIDTH 332 0
DWIDTH 8 0
BBX 4 11 1 8
BITMAP
F0
F0
30
30
30
30
30
30
30
30
30
ENDCHAR

STARTCHAR ordmasculine
ENCODING 186
SWIDTH 369 0
DWIDTH 10 0
BBX 7 10 1 9
BITMAP
38
44
82
82
82
82
44
38
00
FE
ENDCHAR

STARTCHAR guillemotright
ENCODING 187
SWIDTH 425 0
DWIDTH 11 0
BBX 8 10 1 2
BITMAP
CC
CC
66
66
33
33
66
66
CC
CC
ENDCHAR

STARTCHAR onequarter
ENCODING 188
SWIDTH 831 0
DWIDTH 19 0
BBX 17 19 1 0
BITMAP
F01800
F01800
303000
303000
306000
306000
30C000
30C000
318600
310E00
331E00
061E00
063600
0C6600
0CC600
18FF80
18FF80
300600
300600
ENDCHAR

STARTCHAR onehalf
ENCODING 189
SWIDTH 831 0
DWIDTH 19 0
BBX 16 19 1 0
BITMAP
F018
F018
3030
3030
3060
3060
30C0
30C0
31BE
317F
3363
0603
0603
0C06
0C0C
1818
1830
307F
307F
ENDCHAR

STARTCHAR threequarters
ENCODING 190
SWIDTH 831 0
DWIDTH 19 0
BBX 17 19 1 0
BITMAP
7C0C00
FE0C00
C61800
061800
3C3000
3C3000
066000
066000
C6C600
FE8E00
7D9E00
031E00
033600
066600
06C600
0CFF80
0CFF80
180600
180600
ENDCHAR

STARTCHAR questiondown
ENCODING 191
SWIDTH 591 0
DWIDTH 14 0
BBX 11 18 1 -4
BITMAP
0C00
0C00
0C00
0000
0000
0C00
0C00
1800
1800
6000
6000
C000
C000
C060
C060
60C0
7FC0
1F00
ENDCHAR

STARTCHAR Agrave
ENCODING 192
SWIDTH 740 0
DWIDTH 20 0
BBX 19 23 0 0
BITMAP
018000
01E000
007000
000000
004000
00E000
00E000
01B000
01B000
031800
031800
060C00
060C00
0C0600
0C0600
1FFF00
1FFF00
300180
300180
6000C0
6000C0
C00060
C00060
ENDCHAR

STARTCHAR Aacute
ENCODING 193
SWIDTH 740 0
DWIDTH 20 0
BBX 19 23 0 0
BITMAP
003000
00F000
01C000
000000
004000
00E000
00E000
01B000
01B000
031800
031800
060C00
060C00
0C0600
0C0600
1FFF00
1FFF00
300180
300180
6000C0
6000C0
C00060
C00060
ENDCHAR

STARTCHAR Acircumflex
ENCODING 194
SWIDTH 740 0
DWIDTH 20 0
BBX 19 23 0 0
BITMAP
006000
00F000
019800
000000
004000
00E000
00E000
01B000
01B000
031800
031800
060C00
060C00
0C0600
0C0600
1FFF00
1FFF00
300180
300180
6000C0
6000C0
C00060
C00060
ENDCHAR

STARTCHAR Atilde
ENCODING 195
SWIDTH 740 0
DWIDTH 20 0
BBX 19 23 0 0
BITMAP
018800
03F800
023000
000000
004000
00E000
00E000
01B000
01B000
031800
031800
060C00
060C00
0C0600
0C0600
1FFF00
1FFF00
300180
300180
6000C0
6000C0
C00060
C00060
ENDCHAR

STARTCHAR Adieresis
ENCODING 196
SWIDTH 740 0
DWIDTH 20 0
BBX 19 23 0 0
BITMAP
01B000
01B000
01B000
000000
004000
00E000
00E000
01B000
01B000
031800
031800
060C00
060C00
0C0600
0C0600
1FFF00
1FFF00
300180
300180
6000C0
6000C0
C00060
C00060
ENDCHAR

STARTCHAR Aring
ENCODING 197
SWIDTH 740 0
DWIDTH 20 0
BBX 19 24 0 0
BITMAP
00C000
012000
012000
00C000
000000
004000
00E000
00E000
01B000
01B000
031800
031800
060C00
060C00
0C0600
0C0600
1FFF00
1FFF00
300180
300180
6000C0
6000C0
C00060
C00060
ENDCHAR

STARTCHAR AE
ENCODING 198
SWIDTH 992 0
DWIDTH 24 0
BBX 21 19 1 0
BITMAP
007FF8
00FFF8
00D800
019800
019800
031800
031800
061800
061FF8
0C1FF8
0C1800
1FF800
1FF800
301800
301800
601800
601800
C01FF8
C01FF8
ENDCHAR

STARTCHAR Ccedilla
ENCODING 199
SWIDTH 813 0
DWIDTH 21 0
BBX 18 23 1 -4
BITMAP
03F800
0FFE00
3C0780
300180
6000C0
6000C0
C00000
C00000
C00000
C00000
C00000
C00000
C00000
6000C0
6000C0
300180
3C0780
0FFE00
03F800
01C000
006000
01E000
01C000
ENDCHAR

STARTCHAR Egrave
ENCODING 200
SWIDTH 536 0
DWIDTH 12 0
BBX 10 23 1 0
BITMAP
1800
1E00
0700
0000
FFC0
FFC0
C000
C000
C000
C000
C000
C000
FFC0
FFC0
C000
C000
C000
C000
C000
C000
C000
FFC0
FFC0
ENDCHAR

STARTCHAR Eacute
ENCODING 201
SWIDTH 536 0
DWIDTH 12 0
BBX 10 23 1 0
BITMAP
0300
0F00
1C00
0000
FFC0
FFC0
C000
C000
C000
C000
C000
C000
FFC0
FFC0
C000
C000
C000
C000
C000
C000
C000
FFC0
FFC0
ENDCHAR

STARTCHAR Ecircumflex
ENCODING 202
SWIDTH 536 0
DWIDTH 12 0
BBX 10 23 1 0
BITMAP
0C00
1E00
3300
0000
FFC0
FFC0
C000
C000
C000
C000
C000
C000
FFC0
FFC0
C000
C000
C000
C000
C000
C000
C000
FFC0
FFC0
ENDCHAR

STARTCHAR Edieresis
ENCODING 203
SWIDTH 536 0
DWIDTH 12 0
BBX 10 23 1 0
BITMAP
3300
3300
3300
0000
FFC0
FFC0
C000
C000
C000
C000
C000
C000
FFC0
FFC0
C000
C000
C000
C000
C000
C000
C000
FFC0
FFC0
ENDCHAR

STARTCHAR Igrave
ENCODING 204
SWIDTH 226 0
DWIDTH 5 0
BBX 5 23 -1 0
BITMAP
C0
F0
38
00
30
30
30
30
30
30
30
30
30
30
30
30
30
30
30
30
30
30
30
ENDCHAR

STARTCHAR Iacute
ENCODING 205
SWIDTH 226 0
DWIDTH 5 0
BBX 5 23 0 0
BITMAP
18
78
E0
00
60
60
60
60
60
60
60
60
60
60
60
60
60
60
60
60
60
60
60
ENDCHAR

STARTCHAR Icircumflex
ENCODING 206
SWIDTH 226 0
DWIDTH 5 0
BBX 6 23 -1 0
BITMAP
30
78
CC
00
30
30
30
30
30
30
30
30
30
30
30
30
30
30
30
30
30
30
30
ENDCHAR

STARTCHAR Idieresis
ENCODING 207
SWIDTH 226 0
DWIDTH 5 0
BBX 6 23 -1 0
BITMAP
CC
CC
CC
00
30
30
30
30
30
30
30
30
30
30
30
30
30
30
30
30
30
30
30
ENDCHAR

STARTCHAR Eth
ENCODING 208
SWIDTH 790 0
DWIDTH 19 0
BBX 18 19 -1 0
BITMAP
3FF000
3FFC00
300F00
300300
300180
300180
3000C0
3000C0
FE00C0
FE00C0
3000C0
3000C0
3000C0
300180
300180
300300
300F00
3FFC00
3FF000
ENDCHAR

STARTCHAR Ntilde
ENCODING 209
SWIDTH 740 0
DWIDTH 17 0
BBX 14 23 1 0
BITMAP
0620
0FE0
08C0
0000
F00C
F00C
D80C
D80C
CC0C
CC0C
C60C
C60C
C30C
C30C
C18C
C18C
C0CC
C0CC
C06C
C06C
C03C
C03C
C01C
ENDCHAR

STARTCHAR Ograve
ENCODING 210
SWIDTH 869 0
DWIDTH 22 0
BBX 19 23 1 0
BITMAP
018000
01E000
007000
000000
03F800
0FFE00
3C0780
300180
6000C0
6000C0
C00060
C00060
C00060
C00060
C00060
C00060
C00060
6000C0
6000C0
300180
3C0780
0FFE00
03F800
ENDCHAR

STARTCHAR Oacute
ENCODING 211
SWIDTH 869 0
DWIDTH 22 0
BBX 19 23 1 0
BITMAP
003000
00F000
01C000
000000
03F800
0FFE00
3C0780
300180
6000C0
6000C0
C00060
C00060
C00060
C00060
C00060
C00060
C00060
6000C0
6000C0
300180
3C0780
0FFE00
03F800
ENDCHAR

STARTCHAR Ocircumflex
ENCODING 212
SWIDTH 869 0
DWIDTH 22 0
BBX 19 23 1 0
BITMAP
006000
00F000
019800
000000
03F800
0FFE00
3C0780
300180
6000C0
6000C0
C00060
C00060
C00060
C00060
C00060
C00060
C00060
6000C0
6000C0
300180
3C0780
0FFE00
03F800
ENDCHAR

STARTCHAR Otilde
ENCODING 213
SWIDTH 869 0
DWIDTH 22 0
BBX 19 23 1 0
BITMAP
018800
03F800
023000
000000
03F800
0FFE00
3C0780
300180
6000C0
6000C0
C00060
C00060
C00060
C00060
C00060
C00060
C00060
6000C0
6000C0
300180
3C0780
0FFE00
03F800
ENDCHAR

STARTCHAR Odieresis
ENCODING 214
SWIDTH 869 0
DWIDTH 22 0
BBX 19 23 1 0
BITMAP
033000
033000
033000
000000
03F800
0FFE00
3C0780
300180
6000C0
6000C0
C00060
C00060
C00060
C00060
C00060
C00060
C00060
6000C0
6000C0
300180
3C0780
0FFE00
03F800
ENDCHAR

STARTCHAR multiply
ENCODING 215
SWIDTH 606 0
DWIDTH 16 0
BBX 14 14 1 1
BITMAP
C00C
E01C
7038
3870
1CE0
0FC0
0780
0780
0FC0
1CE0
3870
7038
E01C
C00C
ENDCHAR

STARTCHAR Oslash
ENCODING 216
SWIDTH 868 0
DWIDTH 22 0
BBX 19 19 1 0
BITMAP
03F820
0FFE60
3C07C0
300180
6003C0
6006C0
C00C60
C01860
C03060
C06060
C0C060
C18060
C30060
6600C0
6C00C0
380180
3C0780
6FFE00
C3F800
ENDCHAR

STARTCHAR Ugrave
ENCODING 217
SWIDTH 655 0
DWIDTH 17 0
BBX 14 23 1 0
BITMAP
0C00
0F00
0380
0000
C00C
C00C
C00C
C00C
C00C
C00C
C00C
C00C
C00C
C00C
C00C
C00C
C00C
C00C
6018
6018
3030
3FF0
0FC0
ENDCHAR

STARTCHAR Uacute
ENCODING 218
SWIDTH 655 0
DWIDTH 17 0
BBX 14 23 1 0
BITMAP
0180
0780
0E00
0000
C00C
C00C
C00C
C00C
C00C
C00C
C00C
C00C
C00C
C00C
C00C
C00C
C00C
C00C
6018
6018
3030
3FF0
0FC0
ENDCHAR

STARTCHAR Ucircumflex
ENCODING 219
SWIDTH 655 0
DWIDTH 17 0
BBX 14 23 1 0
BITMAP
0300
0780
0CC0
0000
C00C
C00C
C00C
C00C
C00C
C00C
C00C
C00C
C00C
C00C
C00C
C00C
C00C
C00C
6018
6018
3030
3FF0
0FC0
ENDCHAR

STARTCHAR Udieresis
ENCODING 220
SWIDTH 655 0
DWIDTH 17 0
BBX 14 23 1 0
BITMAP
0CC0
0CC0
0CC0
0000
C00C
C00C
C00C
C00C
C00C
C00C
C00C
C00C
C00C
C00C
C00C
C00C
C00C
C00C
6018
6018
3030
3FF0
0FC0
ENDCHAR

STARTCHAR Yacute
ENCODING 221
SWIDTH 592 0
DWIDTH 15 0
BBX 14 23 0 0
BITMAP
0180
0780
0E00
0000
C00C
C00C
6018
6018
3030
3030
1860
1860
0CC0
0CC0
0780
0780
0300
0300
0300
0300
0300
0300
0300
ENDCHAR

STARTCHAR Thorn
ENCODING 222
SWIDTH 592 0
DWIDTH 14 0
BBX 12 19 1 0
BITMAP
C000
C000
C000
FF80
FFE0
C060
C030
C030
C030
C030
C030
C060
C1E0
FF80
FE00
C000
C000
C000
C000
ENDCHAR

STARTCHAR germandbls
ENCODING 223
SWIDTH 554 0
DWIDTH 14 0
BBX 11 19 1 0
BITMAP
1E00
7F80
6180
C0C0
C0C0
C0C0
C0C0
C180
CF00
CFC0
C0E0
C060
C060
C060
C060
E060
F0C0
DFC0
CF00
ENDCHAR

STARTCHAR agrave
ENCODING 224
SWIDTH 683 0
DWIDTH 16 0
BBX 13 18 1 0
BITMAP
0C00
0F00
0380
0000
0F98
3FD8
7078
6038
C018
C018
C018
C018
C018
C018
6038
7078
3FD8
0F98
ENDCHAR

STARTCHAR aacute
ENCODING 225
SWIDTH 683 0
DWIDTH 16 0
BBX 13 18 1 0
BITMAP
0180
0780
0E00
0000
0F98
3FD8
7078
6038
C018
C018
C018
C018
C018
C018
6038
7078
3FD8
0F98
ENDCHAR

STARTCHAR acircumflex
ENCODING 226
SWIDTH 683 0
DWIDTH 16 0
BBX 13 18 1 0
BITMAP
0300
0780
0CC0
0000
0F98
3FD8
7078
6038
C018
C018
C018
C018
C018
C018
6038
7078
3FD8
0F98
ENDCHAR

STARTCHAR atilde
ENCODING 227
SWIDTH 683 0
DWIDTH 16 0
BBX 13 18 1 0
BITMAP
0C40
1FC0
1180
0000
0F98
3FD8
7078
6038
C018
C018
C018
C018
C018
C018
6038
7078
3FD8
0F98
ENDCHAR

STARTCHAR adieresis
ENCODING 228
SWIDTH 683 0
DWIDTH 16 0
BBX 13 18 1 0
BITMAP
0D80
0D80
0D80
0000
0F98
3FD8
7078
6038
C018
C018
C018
C018
C018
C018
6038
7078
3FD8
0F98
ENDCHAR

STARTCHAR aring
ENCODING 229
SWIDTH 683 0
DWIDTH 16 0
BBX 13 19 1 0
BITMAP
0300
0480
0480
0300
0000
0F98
3FD8
7078
6038
C018
C018
C018
C018
C018
C018
6038
7078
3FD8
0F98
ENDCHAR

STARTCHAR ae
ENCODING 230
SWIDTH 1157 0
DWIDTH 27 0
BBX 24 14 1 0
BITMAP
0F99F0
3FDBFC
707E0E
603C06
C01803
C01803
C01FFF
C01FFF
C01800
C01800
603C06
707E0E
3FDBFC
0F99F0
ENDCHAR

STARTCHAR ccedilla
ENCODING 231
SWIDTH 647 0
DWIDTH 15 0
BBX 12 18 1 -4
BITMAP
0F80
3FE0
7070
6030
C000
C000
C000
C000
C000
C000
6030
7070
3FE0
0F80
0E00
0300
0F00
0E00
ENDCHAR

STARTCHAR egrave
ENCODING 232
SWIDTH 650 0
DWIDTH 16 0
BBX 13 18 1 0
BITMAP
0C00
0F00
0380
0000
0F80
3FE0
7070
6030
C018
C018
FFF8
FFF8
C000
C000
6030
7070
3FE0
0F80
ENDCHAR

STARTCHAR eacute
ENCODING 233
SWIDTH 650 0
DWIDTH 16 0
BBX 13 18 1 0
BITMAP
0180
0780
0E00
0000
0F80
3FE0
7070
6030
C018
C018
FFF8
FFF8
C000
C000
6030
7070
3FE0
0F80
ENDCHAR

STARTCHAR ecircumflex
ENCODING 234
SWIDTH 650 0
DWIDTH 16 0
BBX 13 18 1 0
BITMAP
0300
0780
0CC0
0000
0F80
3FE0
7070
6030
C018
C018
FFF8
FFF8
C000
C000
6030
7070
3FE0
0F80
ENDCHAR

STARTCHAR edieresis
ENCODING 235
SWIDTH 650 0
DWIDTH 16 0
BBX 13 18 1 0
BITMAP
0D80
0D80
0D80
0000
0F80
3FE0
7070
6030
C018
C018
FFF8
FFF8
C000
C000
6030
7070
3FE0
0F80
ENDCHAR

STARTCHAR igrave
ENCODING 236
SWIDTH 200 0
DWIDTH 5 0
BBX 5 18 -1 0
BITMAP
C0
F0
38
00
30
30
30
30
30
30
30
30
30
30
30
30
30
30
ENDCHAR

STARTCHAR iacute
ENCODING 237
SWIDTH 200 0
DWIDTH 5 0
BBX 5 18 0 0
BITMAP
18
78
E0
00
60
60
60
60
60
60
60
60
60
60
60
60
60
60
ENDCHAR

STARTCHAR icircumflex
ENCODING 238
SWIDTH 200 0
DWIDTH 5 0
BBX 6 18 -1 0
BITMAP
30
78
CC
00
30
30
30
30
30
30
30
30
30
30
30
30
30
30
ENDCHAR

STARTCHAR idieresis
ENCODING 239
SWIDTH 200 0
DWIDTH 5 0
BBX 6 18 -1 0
BITMAP
CC
CC
CC
00
30
30
30
30
30
30
30
30
30
30
30
30
30
30
ENDCHAR

STARTCHAR eth
ENCODING 240
SWIDTH 655 0
DWIDTH 16 0
BBX 13 19 1 0
BITMAP
6000
18C0
0F00
1B00
6180
0FC0
3FE0
7070
6030
C018
C018
C018
C018
C018
C018
6030
7070
3FE0
0F80
ENDCHAR

STARTCHAR ntilde
ENCODING 241
SWIDTH 610 0
DWIDTH 15 0
BBX 12 18 1 0
BITMAP
0C40
1FC0
1180
0000
CF80
DFE0
F070
E030
C030
C030
C030
C030
C030
C030
C030
C030
C030
C030
ENDCHAR

STARTCHAR ograve
ENCODING 242
SWIDTH 655 0
DWIDTH 16 0
BBX 13 18 1 0
BITMAP
0C00
0F00
0380
0000
0F80
3FE0
7070
6030
C018
C018
C018
C018
C018
C018
6030
7070
3FE0
0F80
ENDCHAR

STARTCHAR oacute
ENCODING 243
SWIDTH 655 0
DWIDTH 16 0
BBX 13 18 1 0
BITMAP
0180
0780
0E00
0000
0F80
3FE0
7070
6030
C018
C018
C018
C018
C018
C018
6030
7070
3FE0
0F80
ENDCHAR

STARTCHAR ocircumflex
ENCODING 244
SWIDTH 655 0
DWIDTH 16 0
BBX 13 18 1 0
BITMAP
0300
0780
0CC0
0000
0F80
3FE0
7070
6030
C018
C018
C018
C018
C018
C018
6030
7070
3FE0
0F80
ENDCHAR

STARTCHAR otilde
ENCODING 245
SWIDTH 655 0
DWIDTH 16 0
BBX 13 18 1 0
BITMAP
0C40
1FC0
1180
0000
0F80
3FE0
7070
6030
C018
C018
C018
C018
C018
C018
6030
7070
3FE0
0F80
ENDCHAR

STARTCHAR odieresis
ENCODING 246
SWIDTH 655 0
DWIDTH 16 0
BBX 13 18 1 0
BITMAP
0D80
0D80
0D80
0000
0F80
3FE0
7070
6030
C018
C018
C018
C018
C018
C018
6030
7070
3FE0
0F80
ENDCHAR

STARTCHAR divide
ENCODING 247
SWIDTH 606 0
DWIDTH 16 0
BBX 14 14 1 1
BITMAP
0300
0300
0300
0000
0000
0000
FFFC
FFFC
0000
0000
0000
0300
0300
0300
ENDCHAR

STARTCHAR oslash
ENCODING 248
SWIDTH 653 0
DWIDTH 16 0
BBX 13 14 1 0
BITMAP
0F98
3FF8
7030
6070
C0D8
C198
C318
C618
CC18
D818
7030
6070
FFE0
CF80
ENDCHAR

STARTCHAR ugrave
ENCODING 249
SWIDTH 608 0
DWIDTH 15 0
BBX 12 18 1 0
BITMAP
1800
1E00
0700
0000
C030
C030
C030
C030
C030
C030
C030
C030
C030
C030
C070
E0F0
7FB0
1F30
ENDCHAR

STARTCHAR uacute
ENCODING 250
SWIDTH 608 0
DWIDTH 15 0
BBX 12 18 1 0
BITMAP
0300
0F00
1C00
0000
C030
C030
C030
C030
C030
C030
C030
C030
C030
C030
C070
E0F0
7FB0
1F30
ENDCHAR

STARTCHAR ucircumflex
ENCODING 251
SWIDTH 608 0
DWIDTH 15 0
BBX 12 18 1 0
BITMAP
0600
0F00
1980
0000
C030
C030
C030
C030
C030
C030
C030
C030
C030
C030
C070
E0F0
7FB0
1F30
ENDCHAR

STARTCHAR udieresis
ENCODING 252
SWIDTH 608 0
DWIDTH 15 0
BBX 12 18 1 0
BITMAP
1980
1980
1980
0000
C030
C030
C030
C030
C030
C030
C030
C030
C030
C030
C070
E0F0
7FB0
1F30
ENDCHAR

STARTCHAR yacute
ENCODING 253
SWIDTH 536 0
DWIDTH 12 0
BBX 11 22 0 -4
BITMAP
0300
0F00
1C00
0000
C060
C060
C060
60C0
60C0
60C0
3180
3180
3180
1B00
1B00
1F00
0E00
0600
0600
0C00
0C00
0C00
ENDCHAR

STARTCHAR thorn
ENCODING 254
SWIDTH 682 0
DWIDTH 16 0
BBX 13 23 1 -4
BITMAP
C000
C000
C000
C000
C000
CF80
DFE0
F070
E030
C018
C018
C018
C018
C018
C018
E030
F070
DFE0
CF80
C000
C000
C000
C000
ENDCHAR

STARTCHAR ydieresis
ENCODING 255
SWIDTH 536 0
DWIDTH 12 0
BBX 11 22 0 -4
BITMAP
1B00
1B00
1B00
0000
C060
C060
C060
60C0
60C0
60C0
3180
3180
3180
1B00
1B00
1F00
0E00
0600
0600
0C00
0C00
0C00
ENDCHAR
ENDFONT
